<mxfile host="Electron" modified="2024-01-16T14:03:16.335Z" agent="Mozilla/5.0 (X11; Linux x86_64) AppleWebKit/537.36 (KHTML, like Gecko) draw.io/22.1.18 Chrome/120.0.6099.199 Electron/28.1.2 Safari/537.36" etag="sKGfR_CA_exj21mtFwVs" version="22.1.18" type="device">
  <diagram name="Page-1" id="5f0bae14-7c28-e335-631c-24af17079c00">
    <mxGraphModel dx="1093" dy="698" grid="1" gridSize="10" guides="1" tooltips="1" connect="1" arrows="1" fold="1" page="1" pageScale="1" pageWidth="1100" pageHeight="850" background="none" math="0" shadow="0">
      <root>
        <mxCell id="0" />
        <mxCell id="1" parent="0" />
        <mxCell id="dtMXtJYD4AQ-HGGYrg1l-43" value="&lt;p style=&quot;margin:0px;margin-top:6px;text-align:center;&quot;&gt;&lt;b&gt;Program&lt;/b&gt;&lt;/p&gt;&lt;hr&gt;&lt;p style=&quot;margin:0px;margin-left:8px;&quot;&gt;&lt;br&gt;&lt;/p&gt;" style="align=left;overflow=fill;html=1;dropTarget=0;shadow=0;fillColor=default;" parent="1" vertex="1">
          <mxGeometry x="130" y="60" width="880" height="580" as="geometry" />
        </mxCell>
        <mxCell id="dtMXtJYD4AQ-HGGYrg1l-44" value="" style="shape=component;jettyWidth=8;jettyHeight=4;" parent="dtMXtJYD4AQ-HGGYrg1l-43" vertex="1">
          <mxGeometry x="1" width="20" height="20" relative="1" as="geometry">
            <mxPoint x="-24" y="4" as="offset" />
          </mxGeometry>
        </mxCell>
        <mxCell id="dtMXtJYD4AQ-HGGYrg1l-8" value="&lt;b&gt;UI&lt;/b&gt;" style="html=1;dropTarget=0;" parent="1" vertex="1">
          <mxGeometry x="770" y="170" width="180" height="90" as="geometry" />
        </mxCell>
        <mxCell id="dtMXtJYD4AQ-HGGYrg1l-9" value="" style="shape=module;jettyWidth=8;jettyHeight=4;" parent="dtMXtJYD4AQ-HGGYrg1l-8" vertex="1">
          <mxGeometry x="1" width="20" height="20" relative="1" as="geometry">
            <mxPoint x="-27" y="7" as="offset" />
          </mxGeometry>
        </mxCell>
        <mxCell id="dtMXtJYD4AQ-HGGYrg1l-12" value="«Library»&lt;br&gt;&lt;b&gt;PySide6&lt;/b&gt;" style="html=1;dropTarget=0;" parent="1" vertex="1">
          <mxGeometry x="1110" y="95" width="180" height="90" as="geometry" />
        </mxCell>
        <mxCell id="dtMXtJYD4AQ-HGGYrg1l-13" value="" style="shape=module;jettyWidth=8;jettyHeight=4;" parent="dtMXtJYD4AQ-HGGYrg1l-12" vertex="1">
          <mxGeometry x="1" width="20" height="20" relative="1" as="geometry">
            <mxPoint x="-27" y="7" as="offset" />
          </mxGeometry>
        </mxCell>
        <mxCell id="dtMXtJYD4AQ-HGGYrg1l-19" value="" style="rounded=0;orthogonalLoop=1;jettySize=auto;html=1;endArrow=none;endFill=0;sketch=0;sourcePerimeterSpacing=0;targetPerimeterSpacing=0;" parent="1" source="_Iwol62PLSE2KKWXIreL-1" target="dtMXtJYD4AQ-HGGYrg1l-21" edge="1">
          <mxGeometry relative="1" as="geometry">
            <mxPoint x="750" y="345" as="sourcePoint" />
          </mxGeometry>
        </mxCell>
        <mxCell id="dtMXtJYD4AQ-HGGYrg1l-20" value="" style="rounded=0;orthogonalLoop=1;jettySize=auto;html=1;endArrow=halfCircle;endFill=0;entryX=0.5;entryY=0.5;endSize=6;strokeWidth=1;sketch=0;" parent="1" source="dtMXtJYD4AQ-HGGYrg1l-8" target="dtMXtJYD4AQ-HGGYrg1l-21" edge="1">
          <mxGeometry relative="1" as="geometry">
            <mxPoint x="320" y="320" as="sourcePoint" />
          </mxGeometry>
        </mxCell>
        <mxCell id="dtMXtJYD4AQ-HGGYrg1l-21" value="" style="ellipse;whiteSpace=wrap;html=1;align=center;aspect=fixed;resizable=0;points=[];outlineConnect=0;sketch=0;direction=south;" parent="1" vertex="1">
          <mxGeometry x="535" y="210" width="10" height="10" as="geometry" />
        </mxCell>
        <mxCell id="dtMXtJYD4AQ-HGGYrg1l-22" value="&lt;b&gt;Simulator&lt;/b&gt;" style="html=1;dropTarget=0;" parent="1" vertex="1">
          <mxGeometry x="450" y="480" width="180" height="90" as="geometry" />
        </mxCell>
        <mxCell id="dtMXtJYD4AQ-HGGYrg1l-23" value="" style="shape=module;jettyWidth=8;jettyHeight=4;" parent="dtMXtJYD4AQ-HGGYrg1l-22" vertex="1">
          <mxGeometry x="1" width="20" height="20" relative="1" as="geometry">
            <mxPoint x="-27" y="7" as="offset" />
          </mxGeometry>
        </mxCell>
        <mxCell id="dtMXtJYD4AQ-HGGYrg1l-25" value="" style="rounded=0;orthogonalLoop=1;jettySize=auto;html=1;endArrow=none;endFill=0;sketch=0;sourcePerimeterSpacing=0;targetPerimeterSpacing=0;exitX=0.5;exitY=1;exitDx=0;exitDy=0;" parent="1" source="_Iwol62PLSE2KKWXIreL-1" target="dtMXtJYD4AQ-HGGYrg1l-27" edge="1">
          <mxGeometry relative="1" as="geometry">
            <mxPoint x="540" y="410" as="sourcePoint" />
          </mxGeometry>
        </mxCell>
        <mxCell id="dtMXtJYD4AQ-HGGYrg1l-26" value="" style="rounded=0;orthogonalLoop=1;jettySize=auto;html=1;endArrow=halfCircle;endFill=0;entryX=0.5;entryY=0.5;endSize=6;strokeWidth=1;sketch=0;" parent="1" source="dtMXtJYD4AQ-HGGYrg1l-22" target="dtMXtJYD4AQ-HGGYrg1l-27" edge="1">
          <mxGeometry relative="1" as="geometry">
            <mxPoint x="790" y="345" as="sourcePoint" />
          </mxGeometry>
        </mxCell>
        <mxCell id="dtMXtJYD4AQ-HGGYrg1l-27" value="" style="ellipse;whiteSpace=wrap;html=1;align=center;aspect=fixed;resizable=0;points=[];outlineConnect=0;sketch=0;" parent="1" vertex="1">
          <mxGeometry x="535" y="430" width="10" height="10" as="geometry" />
        </mxCell>
        <mxCell id="dtMXtJYD4AQ-HGGYrg1l-28" value="&lt;b&gt;Input Reader&lt;/b&gt;" style="html=1;dropTarget=0;" parent="1" vertex="1">
          <mxGeometry x="770" y="480" width="180" height="90" as="geometry" />
        </mxCell>
        <mxCell id="dtMXtJYD4AQ-HGGYrg1l-29" value="" style="shape=module;jettyWidth=8;jettyHeight=4;" parent="dtMXtJYD4AQ-HGGYrg1l-28" vertex="1">
          <mxGeometry x="1" width="20" height="20" relative="1" as="geometry">
            <mxPoint x="-27" y="7" as="offset" />
          </mxGeometry>
        </mxCell>
        <mxCell id="dtMXtJYD4AQ-HGGYrg1l-30" value="" style="rounded=0;orthogonalLoop=1;jettySize=auto;html=1;endArrow=none;endFill=0;sketch=0;sourcePerimeterSpacing=0;targetPerimeterSpacing=0;" parent="1" source="dtMXtJYD4AQ-HGGYrg1l-22" target="dtMXtJYD4AQ-HGGYrg1l-32" edge="1">
          <mxGeometry relative="1" as="geometry">
            <mxPoint x="590" y="345" as="sourcePoint" />
            <Array as="points" />
          </mxGeometry>
        </mxCell>
        <mxCell id="dtMXtJYD4AQ-HGGYrg1l-31" value="" style="rounded=0;orthogonalLoop=1;jettySize=auto;html=1;endArrow=halfCircle;endFill=0;entryX=0.5;entryY=0.5;endSize=6;strokeWidth=1;sketch=0;" parent="1" source="dtMXtJYD4AQ-HGGYrg1l-28" target="dtMXtJYD4AQ-HGGYrg1l-32" edge="1">
          <mxGeometry relative="1" as="geometry">
            <mxPoint x="570" y="345" as="sourcePoint" />
            <Array as="points">
              <mxPoint x="740" y="525" />
            </Array>
          </mxGeometry>
        </mxCell>
        <mxCell id="dtMXtJYD4AQ-HGGYrg1l-32" value="" style="ellipse;whiteSpace=wrap;html=1;align=center;aspect=fixed;resizable=0;points=[];outlineConnect=0;sketch=0;" parent="1" vertex="1">
          <mxGeometry x="700" y="520" width="10" height="10" as="geometry" />
        </mxCell>
        <mxCell id="dtMXtJYD4AQ-HGGYrg1l-33" value="«Library»&lt;br&gt;&lt;b&gt;numpy&lt;/b&gt;" style="html=1;dropTarget=0;" parent="1" vertex="1">
          <mxGeometry x="450" y="740" width="180" height="90" as="geometry" />
        </mxCell>
        <mxCell id="dtMXtJYD4AQ-HGGYrg1l-34" value="" style="shape=module;jettyWidth=8;jettyHeight=4;" parent="dtMXtJYD4AQ-HGGYrg1l-33" vertex="1">
          <mxGeometry x="1" width="20" height="20" relative="1" as="geometry">
            <mxPoint x="-27" y="7" as="offset" />
          </mxGeometry>
        </mxCell>
        <mxCell id="dtMXtJYD4AQ-HGGYrg1l-38" value="«Library»&lt;br&gt;&lt;b&gt;lark&lt;/b&gt;" style="html=1;dropTarget=0;" parent="1" vertex="1">
          <mxGeometry x="1110" y="480" width="180" height="90" as="geometry" />
        </mxCell>
        <mxCell id="dtMXtJYD4AQ-HGGYrg1l-39" value="" style="shape=module;jettyWidth=8;jettyHeight=4;" parent="dtMXtJYD4AQ-HGGYrg1l-38" vertex="1">
          <mxGeometry x="1" width="20" height="20" relative="1" as="geometry">
            <mxPoint x="-27" y="7" as="offset" />
          </mxGeometry>
        </mxCell>
        <mxCell id="dtMXtJYD4AQ-HGGYrg1l-48" value="" style="html=1;rounded=0;fillColor=default;" parent="1" vertex="1">
          <mxGeometry x="1000" y="130" width="20" height="20" as="geometry" />
        </mxCell>
        <mxCell id="dtMXtJYD4AQ-HGGYrg1l-54" value="" style="html=1;rounded=0;fillColor=default;" parent="1" vertex="1">
          <mxGeometry x="1000" y="515" width="20" height="20" as="geometry" />
        </mxCell>
        <mxCell id="dtMXtJYD4AQ-HGGYrg1l-58" value="" style="html=1;rounded=0;fillColor=default;" parent="1" vertex="1">
          <mxGeometry x="530" y="630" width="20" height="20" as="geometry" />
        </mxCell>
        <mxCell id="dtMXtJYD4AQ-HGGYrg1l-70" value="" style="rounded=0;orthogonalLoop=1;jettySize=auto;html=1;endArrow=none;endFill=0;sketch=0;sourcePerimeterSpacing=0;targetPerimeterSpacing=0;" parent="1" source="dtMXtJYD4AQ-HGGYrg1l-48" target="dtMXtJYD4AQ-HGGYrg1l-72" edge="1">
          <mxGeometry relative="1" as="geometry">
            <mxPoint x="850" y="405" as="sourcePoint" />
          </mxGeometry>
        </mxCell>
        <mxCell id="dtMXtJYD4AQ-HGGYrg1l-71" value="" style="rounded=0;orthogonalLoop=1;jettySize=auto;html=1;endArrow=halfCircle;endFill=0;entryX=0.5;entryY=0.5;endSize=6;strokeWidth=1;sketch=0;" parent="1" source="dtMXtJYD4AQ-HGGYrg1l-12" target="dtMXtJYD4AQ-HGGYrg1l-72" edge="1">
          <mxGeometry relative="1" as="geometry">
            <mxPoint x="890" y="405" as="sourcePoint" />
          </mxGeometry>
        </mxCell>
        <mxCell id="dtMXtJYD4AQ-HGGYrg1l-72" value="" style="ellipse;whiteSpace=wrap;html=1;align=center;aspect=fixed;resizable=0;points=[];outlineConnect=0;sketch=0;fillColor=default;" parent="1" vertex="1">
          <mxGeometry x="1050" y="135" width="10" height="10" as="geometry" />
        </mxCell>
        <mxCell id="dtMXtJYD4AQ-HGGYrg1l-73" value="" style="rounded=0;orthogonalLoop=1;jettySize=auto;html=1;endArrow=none;endFill=0;sketch=0;sourcePerimeterSpacing=0;targetPerimeterSpacing=0;" parent="1" source="dtMXtJYD4AQ-HGGYrg1l-54" target="dtMXtJYD4AQ-HGGYrg1l-75" edge="1">
          <mxGeometry relative="1" as="geometry">
            <mxPoint x="1040" y="490" as="sourcePoint" />
          </mxGeometry>
        </mxCell>
        <mxCell id="dtMXtJYD4AQ-HGGYrg1l-74" value="" style="rounded=0;orthogonalLoop=1;jettySize=auto;html=1;endArrow=halfCircle;endFill=0;entryX=0.5;entryY=0.5;endSize=6;strokeWidth=1;sketch=0;" parent="1" source="dtMXtJYD4AQ-HGGYrg1l-38" target="dtMXtJYD4AQ-HGGYrg1l-75" edge="1">
          <mxGeometry relative="1" as="geometry">
            <mxPoint x="1120" y="130" as="sourcePoint" />
          </mxGeometry>
        </mxCell>
        <mxCell id="dtMXtJYD4AQ-HGGYrg1l-75" value="" style="ellipse;whiteSpace=wrap;html=1;align=center;aspect=fixed;resizable=0;points=[];outlineConnect=0;sketch=0;fillColor=default;" parent="1" vertex="1">
          <mxGeometry x="1060" y="520" width="10" height="10" as="geometry" />
        </mxCell>
        <mxCell id="dtMXtJYD4AQ-HGGYrg1l-76" value="" style="rounded=0;orthogonalLoop=1;jettySize=auto;html=1;endArrow=none;endFill=0;sketch=0;sourcePerimeterSpacing=0;targetPerimeterSpacing=0;" parent="1" source="dtMXtJYD4AQ-HGGYrg1l-58" target="dtMXtJYD4AQ-HGGYrg1l-78" edge="1">
          <mxGeometry relative="1" as="geometry">
            <mxPoint x="575" y="670" as="sourcePoint" />
          </mxGeometry>
        </mxCell>
        <mxCell id="dtMXtJYD4AQ-HGGYrg1l-77" value="" style="rounded=0;orthogonalLoop=1;jettySize=auto;html=1;endArrow=halfCircle;endFill=0;entryX=0.5;entryY=0.5;endSize=6;strokeWidth=1;sketch=0;" parent="1" source="dtMXtJYD4AQ-HGGYrg1l-33" target="dtMXtJYD4AQ-HGGYrg1l-78" edge="1">
          <mxGeometry relative="1" as="geometry">
            <mxPoint x="1115" y="190" as="sourcePoint" />
          </mxGeometry>
        </mxCell>
        <mxCell id="dtMXtJYD4AQ-HGGYrg1l-78" value="" style="ellipse;whiteSpace=wrap;html=1;align=center;aspect=fixed;resizable=0;points=[];outlineConnect=0;sketch=0;fillColor=default;" parent="1" vertex="1">
          <mxGeometry x="535" y="690" width="10" height="10" as="geometry" />
        </mxCell>
        <mxCell id="_Iwol62PLSE2KKWXIreL-1" value="&lt;b&gt;Events Manager&lt;/b&gt;" style="html=1;dropTarget=0;" parent="1" vertex="1">
          <mxGeometry x="450" y="320" width="180" height="90" as="geometry" />
        </mxCell>
        <mxCell id="_Iwol62PLSE2KKWXIreL-2" value="" style="shape=module;jettyWidth=8;jettyHeight=4;" parent="_Iwol62PLSE2KKWXIreL-1" vertex="1">
          <mxGeometry x="1" width="20" height="20" relative="1" as="geometry">
            <mxPoint x="-27" y="7" as="offset" />
          </mxGeometry>
        </mxCell>
        <mxCell id="_Iwol62PLSE2KKWXIreL-3" value="&lt;b&gt;Grapher&lt;/b&gt;" style="html=1;dropTarget=0;" parent="1" vertex="1">
          <mxGeometry x="170" y="320" width="180" height="90" as="geometry" />
        </mxCell>
        <mxCell id="_Iwol62PLSE2KKWXIreL-4" value="" style="shape=module;jettyWidth=8;jettyHeight=4;" parent="_Iwol62PLSE2KKWXIreL-3" vertex="1">
          <mxGeometry x="1" width="20" height="20" relative="1" as="geometry">
            <mxPoint x="-27" y="7" as="offset" />
          </mxGeometry>
        </mxCell>
        <mxCell id="_Iwol62PLSE2KKWXIreL-7" value="" style="rounded=0;orthogonalLoop=1;jettySize=auto;html=1;endArrow=none;endFill=0;sketch=0;sourcePerimeterSpacing=0;targetPerimeterSpacing=0;exitX=0;exitY=0.5;exitDx=0;exitDy=0;" parent="1" source="_Iwol62PLSE2KKWXIreL-1" target="_Iwol62PLSE2KKWXIreL-9" edge="1">
          <mxGeometry relative="1" as="geometry">
            <mxPoint x="530" y="445" as="sourcePoint" />
          </mxGeometry>
        </mxCell>
        <mxCell id="_Iwol62PLSE2KKWXIreL-8" value="" style="rounded=0;orthogonalLoop=1;jettySize=auto;html=1;endArrow=halfCircle;endFill=0;entryX=0.5;entryY=0.5;endSize=6;strokeWidth=1;sketch=0;" parent="1" source="_Iwol62PLSE2KKWXIreL-3" target="_Iwol62PLSE2KKWXIreL-9" edge="1">
          <mxGeometry relative="1" as="geometry">
            <mxPoint x="570" y="445" as="sourcePoint" />
          </mxGeometry>
        </mxCell>
        <mxCell id="_Iwol62PLSE2KKWXIreL-9" value="" style="ellipse;whiteSpace=wrap;html=1;align=center;aspect=fixed;resizable=0;points=[];outlineConnect=0;sketch=0;" parent="1" vertex="1">
          <mxGeometry x="390" y="360" width="10" height="10" as="geometry" />
        </mxCell>
        <mxCell id="_Iwol62PLSE2KKWXIreL-10" value="" style="rounded=0;orthogonalLoop=1;jettySize=auto;html=1;endArrow=none;endFill=0;sketch=0;sourcePerimeterSpacing=0;targetPerimeterSpacing=0;exitX=0.5;exitY=0;exitDx=0;exitDy=0;" parent="1" source="dtMXtJYD4AQ-HGGYrg1l-8" target="_Iwol62PLSE2KKWXIreL-12" edge="1">
          <mxGeometry relative="1" as="geometry">
            <mxPoint x="370" y="385" as="sourcePoint" />
          </mxGeometry>
        </mxCell>
        <mxCell id="_Iwol62PLSE2KKWXIreL-11" value="" style="rounded=0;orthogonalLoop=1;jettySize=auto;html=1;endArrow=halfCircle;endFill=0;entryX=0.5;entryY=0.5;endSize=6;strokeWidth=1;sketch=0;exitX=0;exitY=0.5;exitDx=0;exitDy=0;" parent="1" source="dtMXtJYD4AQ-HGGYrg1l-48" target="_Iwol62PLSE2KKWXIreL-12" edge="1">
          <mxGeometry relative="1" as="geometry">
            <mxPoint x="410" y="385" as="sourcePoint" />
          </mxGeometry>
        </mxCell>
        <mxCell id="_Iwol62PLSE2KKWXIreL-12" value="" style="ellipse;whiteSpace=wrap;html=1;align=center;aspect=fixed;resizable=0;points=[];outlineConnect=0;sketch=0;fillColor=default;" parent="1" vertex="1">
          <mxGeometry x="855" y="135" width="10" height="10" as="geometry" />
        </mxCell>
        <mxCell id="_Iwol62PLSE2KKWXIreL-13" value="" style="rounded=0;orthogonalLoop=1;jettySize=auto;html=1;endArrow=none;endFill=0;sketch=0;sourcePerimeterSpacing=0;targetPerimeterSpacing=0;exitX=1;exitY=0.5;exitDx=0;exitDy=0;" parent="1" source="dtMXtJYD4AQ-HGGYrg1l-28" target="_Iwol62PLSE2KKWXIreL-15" edge="1">
          <mxGeometry relative="1" as="geometry">
            <mxPoint x="490" y="435" as="sourcePoint" />
          </mxGeometry>
        </mxCell>
        <mxCell id="_Iwol62PLSE2KKWXIreL-14" value="" style="rounded=0;orthogonalLoop=1;jettySize=auto;html=1;endArrow=halfCircle;endFill=0;entryX=0.5;entryY=0.5;endSize=6;strokeWidth=1;sketch=0;exitX=0;exitY=0.5;exitDx=0;exitDy=0;" parent="1" source="dtMXtJYD4AQ-HGGYrg1l-54" target="_Iwol62PLSE2KKWXIreL-15" edge="1">
          <mxGeometry relative="1" as="geometry">
            <mxPoint x="530" y="415" as="sourcePoint" />
          </mxGeometry>
        </mxCell>
        <mxCell id="_Iwol62PLSE2KKWXIreL-15" value="" style="ellipse;whiteSpace=wrap;html=1;align=center;aspect=fixed;resizable=0;points=[];outlineConnect=0;sketch=0;fillColor=default;" parent="1" vertex="1">
          <mxGeometry x="970" y="520" width="10" height="10" as="geometry" />
        </mxCell>
        <mxCell id="MTufG0IwYqVj2-tdwVs2-1" value="Title" style="rounded=0;whiteSpace=wrap;html=1;" parent="1" vertex="1">
          <mxGeometry x="600" y="840" width="120" height="40" as="geometry" />
        </mxCell>
        <mxCell id="MTufG0IwYqVj2-tdwVs2-2" value="High level components" style="rounded=0;whiteSpace=wrap;html=1;" parent="1" vertex="1">
          <mxGeometry x="720.0000000000001" y="840" width="320" height="40" as="geometry" />
        </mxCell>
        <mxCell id="MTufG0IwYqVj2-tdwVs2-3" value="Module" style="rounded=0;whiteSpace=wrap;html=1;" parent="1" vertex="1">
          <mxGeometry x="600" y="920" width="120" height="40" as="geometry" />
        </mxCell>
        <mxCell id="MTufG0IwYqVj2-tdwVs2-4" value="Author" style="rounded=0;whiteSpace=wrap;html=1;" parent="1" vertex="1">
          <mxGeometry x="600" y="880" width="120" height="40" as="geometry" />
        </mxCell>
        <mxCell id="MTufG0IwYqVj2-tdwVs2-5" value="@EmmanuelMess" style="rounded=0;whiteSpace=wrap;html=1;" parent="1" vertex="1">
          <mxGeometry x="720.0000000000001" y="880" width="120" height="40" as="geometry" />
        </mxCell>
        <mxCell id="MTufG0IwYqVj2-tdwVs2-6" value="All" style="rounded=0;whiteSpace=wrap;html=1;" parent="1" vertex="1">
          <mxGeometry x="720.0000000000001" y="920" width="120" height="40" as="geometry" />
        </mxCell>
        <mxCell id="MTufG0IwYqVj2-tdwVs2-7" value="Version" style="rounded=0;whiteSpace=wrap;html=1;" parent="1" vertex="1">
          <mxGeometry x="839.9999999999999" y="880" width="120" height="40" as="geometry" />
        </mxCell>
        <mxCell id="MTufG0IwYqVj2-tdwVs2-8" value="&lt;font style=&quot;font-size: 25px;&quot;&gt;Constraint Based Simulator&lt;/font&gt;" style="rounded=0;whiteSpace=wrap;html=1;" parent="1" vertex="1">
          <mxGeometry x="1040" y="840" width="200" height="120" as="geometry" />
        </mxCell>
        <mxCell id="MTufG0IwYqVj2-tdwVs2-9" value="1.2.0" style="rounded=0;whiteSpace=wrap;html=1;" parent="1" vertex="1">
          <mxGeometry x="960.0000000000001" y="880" width="80" height="40" as="geometry" />
        </mxCell>
        <mxCell id="MTufG0IwYqVj2-tdwVs2-10" value="For software version" style="rounded=0;whiteSpace=wrap;html=1;" parent="1" vertex="1">
          <mxGeometry x="839.9999999999999" y="920" width="120" height="40" as="geometry" />
        </mxCell>
        <mxCell id="MTufG0IwYqVj2-tdwVs2-11" value="0.1.0" style="rounded=0;whiteSpace=wrap;html=1;" parent="1" vertex="1">
          <mxGeometry x="960.0000000000001" y="920" width="80" height="40" as="geometry" />
        </mxCell>
        <mxCell id="2ZhggpILNKg5NtlXd1R4-4" value="" style="rounded=0;orthogonalLoop=1;jettySize=auto;html=1;endArrow=none;endFill=0;sketch=0;sourcePerimeterSpacing=0;targetPerimeterSpacing=0;exitX=0.5;exitY=1;exitDx=0;exitDy=0;" parent="1" source="dtMXtJYD4AQ-HGGYrg1l-22" target="2ZhggpILNKg5NtlXd1R4-6" edge="1">
          <mxGeometry relative="1" as="geometry">
            <mxPoint x="540" y="590" as="sourcePoint" />
          </mxGeometry>
        </mxCell>
        <mxCell id="2ZhggpILNKg5NtlXd1R4-5" value="" style="rounded=0;orthogonalLoop=1;jettySize=auto;html=1;endArrow=halfCircle;endFill=0;entryX=0.5;entryY=0.5;endSize=6;strokeWidth=1;sketch=0;" parent="1" target="2ZhggpILNKg5NtlXd1R4-6" edge="1">
          <mxGeometry relative="1" as="geometry">
            <mxPoint x="540" y="630" as="sourcePoint" />
          </mxGeometry>
        </mxCell>
        <mxCell id="2ZhggpILNKg5NtlXd1R4-6" value="" style="ellipse;whiteSpace=wrap;html=1;align=center;aspect=fixed;resizable=0;points=[];outlineConnect=0;sketch=0;fillColor=default;" parent="1" vertex="1">
          <mxGeometry x="535" y="610" width="10" height="10" as="geometry" />
        </mxCell>
        <mxCell id="2ZhggpILNKg5NtlXd1R4-15" value="" style="rounded=0;orthogonalLoop=1;jettySize=auto;html=1;endArrow=none;endFill=0;sketch=0;sourcePerimeterSpacing=0;targetPerimeterSpacing=0;" parent="1" source="_Iwol62PLSE2KKWXIreL-1" target="2ZhggpILNKg5NtlXd1R4-17" edge="1">
          <mxGeometry relative="1" as="geometry">
            <mxPoint x="860" y="410" as="sourcePoint" />
          </mxGeometry>
        </mxCell>
        <mxCell id="2ZhggpILNKg5NtlXd1R4-16" value="" style="rounded=0;orthogonalLoop=1;jettySize=auto;html=1;endArrow=halfCircle;endFill=0;entryX=0.5;entryY=0.5;endSize=6;strokeWidth=1;sketch=0;exitX=0.5;exitY=0;exitDx=0;exitDy=0;" parent="1" source="dtMXtJYD4AQ-HGGYrg1l-28" target="2ZhggpILNKg5NtlXd1R4-17" edge="1">
          <mxGeometry relative="1" as="geometry">
            <mxPoint x="910" y="455" as="sourcePoint" />
          </mxGeometry>
        </mxCell>
        <mxCell id="2ZhggpILNKg5NtlXd1R4-17" value="" style="ellipse;whiteSpace=wrap;html=1;align=center;aspect=fixed;resizable=0;points=[];outlineConnect=0;sketch=0;fillColor=default;" parent="1" vertex="1">
          <mxGeometry x="855" y="360" width="10" height="10" as="geometry" />
        </mxCell>
      </root>
    </mxGraphModel>
  </diagram>
</mxfile>
